<svg version="1.1"
     baseProfile="full"
     xmlns="http://www.w3.org/2000/svg"
     viewBox="0 0 191 1"
     preserveAspectRatio="none"
     width="100%"
     height="100px">
    <rect x="0" y="0" width="1" height="1" fill="black"/>
    <rect x="1" y="0" width="3" height="1" fill="white"/>
    <rect x="4" y="0" width="1" height="1" fill="black"/>
    <rect x="5" y="0" width="1" height="1" fill="white"/>
    <rect x="6" y="0" width="3" height="1" fill="black"/>
    <rect x="9" y="0" width="1" height="1" fill="white"/>
    <rect x="10" y="0" width="3" height="1" fill="black"/>
    <rect x="13" y="0" width="1" height="1" fill="white"/>
    <rect x="14" y="0" width="1" height="1" fill="black"/>
    <rect x="15" y="0" width="1" height="1" fill="white"/>
    <rect x="16" y="0" width="1" height="1" fill="black"/>
    <rect x="17" y="0" width="1" height="1" fill="white"/>
    <rect x="18" y="0" width="3" height="1" fill="black"/>
    <rect x="21" y="0" width="1" height="1" fill="white"/>
    <rect x="22" y="0" width="1" height="1" fill="black"/>
    <rect x="23" y="0" width="3" height="1" fill="white"/>
    <rect x="26" y="0" width="1" height="1" fill="black"/>
    <rect x="27" y="0" width="1" height="1" fill="white"/>
    <rect x="28" y="0" width="3" height="1" fill="black"/>
    <rect x="31" y="0" width="1" height="1" fill="white"/>
    <rect x="32" y="0" width="3" height="1" fill="black"/>
    <rect x="35" y="0" width="1" height="1" fill="white"/>
    <rect x="36" y="0" width="1" height="1" fill="black"/>
    <rect x="37" y="0" width="1" height="1" fill="white"/>
    <rect x="38" y="0" width="1" height="1" fill="black"/>
    <rect x="39" y="0" width="3" height="1" fill="white"/>
    <rect x="42" y="0" width="1" height="1" fill="black"/>
    <rect x="43" y="0" width="1" height="1" fill="white"/>
    <rect x="44" y="0" width="3" height="1" fill="black"/>
    <rect x="47" y="0" width="1" height="1" fill="white"/>
    <rect x="48" y="0" width="3" height="1" fill="black"/>
    <rect x="51" y="0" width="1" height="1" fill="white"/>
    <rect x="52" y="0" width="1" height="1" fill="black"/>
    <rect x="53" y="0" width="1" height="1" fill="white"/>
    <rect x="54" y="0" width="1" height="1" fill="black"/>
    <rect x="55" y="0" width="1" height="1" fill="white"/>
    <rect x="56" y="0" width="3" height="1" fill="black"/>
    <rect x="59" y="0" width="3" height="1" fill="white"/>
    <rect x="62" y="0" width="1" height="1" fill="black"/>
    <rect x="63" y="0" width="1" height="1" fill="white"/>
    <rect x="64" y="0" width="3" height="1" fill="black"/>
    <rect x="67" y="0" width="1" height="1" fill="white"/>
    <rect x="68" y="0" width="3" height="1" fill="black"/>
    <rect x="71" y="0" width="1" height="1" fill="white"/>
    <rect x="72" y="0" width="1" height="1" fill="black"/>
    <rect x="73" y="0" width="3" height="1" fill="white"/>
    <rect x="76" y="0" width="1" height="1" fill="black"/>
    <rect x="77" y="0" width="1" height="1" fill="white"/>
    <rect x="78" y="0" width="1" height="1" fill="black"/>
    <rect x="79" y="0" width="1" height="1" fill="white"/>
    <rect x="80" y="0" width="3" height="1" fill="black"/>
    <rect x="83" y="0" width="1" height="1" fill="white"/>
    <rect x="84" y="0" width="1" height="1" fill="black"/>
    <rect x="85" y="0" width="1" height="1" fill="white"/>
    <rect x="86" y="0" width="3" height="1" fill="black"/>
    <rect x="89" y="0" width="1" height="1" fill="white"/>
    <rect x="90" y="0" width="1" height="1" fill="black"/>
    <rect x="91" y="0" width="3" height="1" fill="white"/>
    <rect x="94" y="0" width="1" height="1" fill="black"/>
    <rect x="95" y="0" width="1" height="1" fill="white"/>
    <rect x="96" y="0" width="1" height="1" fill="black"/>
    <rect x="97" y="0" width="1" height="1" fill="white"/>
    <rect x="98" y="0" width="1" height="1" fill="black"/>
    <rect x="99" y="0" width="1" height="1" fill="white"/>
    <rect x="100" y="0" width="3" height="1" fill="black"/>
    <rect x="103" y="0" width="3" height="1" fill="white"/>
    <rect x="106" y="0" width="1" height="1" fill="black"/>
    <rect x="107" y="0" width="1" height="1" fill="white"/>
    <rect x="108" y="0" width="3" height="1" fill="black"/>
    <rect x="111" y="0" width="1" height="1" fill="white"/>
    <rect x="112" y="0" width="3" height="1" fill="black"/>
    <rect x="115" y="0" width="1" height="1" fill="white"/>
    <rect x="116" y="0" width="1" height="1" fill="black"/>
    <rect x="117" y="0" width="1" height="1" fill="white"/>
    <rect x="118" y="0" width="3" height="1" fill="black"/>
    <rect x="121" y="0" width="3" height="1" fill="white"/>
    <rect x="124" y="0" width="1" height="1" fill="black"/>
    <rect x="125" y="0" width="1" height="1" fill="white"/>
    <rect x="126" y="0" width="1" height="1" fill="black"/>
    <rect x="127" y="0" width="1" height="1" fill="white"/>
    <rect x="128" y="0" width="3" height="1" fill="black"/>
    <rect x="131" y="0" width="3" height="1" fill="white"/>
    <rect x="134" y="0" width="1" height="1" fill="black"/>
    <rect x="135" y="0" width="1" height="1" fill="white"/>
    <rect x="136" y="0" width="1" height="1" fill="black"/>
    <rect x="137" y="0" width="1" height="1" fill="white"/>
    <rect x="138" y="0" width="3" height="1" fill="black"/>
    <rect x="141" y="0" width="1" height="1" fill="white"/>
    <rect x="142" y="0" width="1" height="1" fill="black"/>
    <rect x="143" y="0" width="1" height="1" fill="white"/>
    <rect x="144" y="0" width="1" height="1" fill="black"/>
    <rect x="145" y="0" width="1" height="1" fill="white"/>
    <rect x="146" y="0" width="1" height="1" fill="black"/>
    <rect x="147" y="0" width="1" height="1" fill="white"/>
    <rect x="148" y="0" width="3" height="1" fill="black"/>
    <rect x="151" y="0" width="3" height="1" fill="white"/>
    <rect x="154" y="0" width="3" height="1" fill="black"/>
    <rect x="157" y="0" width="1" height="1" fill="white"/>
    <rect x="158" y="0" width="1" height="1" fill="black"/>
    <rect x="159" y="0" width="1" height="1" fill="white"/>
    <rect x="160" y="0" width="1" height="1" fill="black"/>
    <rect x="161" y="0" width="1" height="1" fill="white"/>
    <rect x="162" y="0" width="3" height="1" fill="black"/>
    <rect x="165" y="0" width="1" height="1" fill="white"/>
    <rect x="166" y="0" width="1" height="1" fill="black"/>
    <rect x="167" y="0" width="1" height="1" fill="white"/>
    <rect x="168" y="0" width="3" height="1" fill="black"/>
    <rect x="171" y="0" width="3" height="1" fill="white"/>
    <rect x="174" y="0" width="1" height="1" fill="black"/>
    <rect x="175" y="0" width="1" height="1" fill="white"/>
    <rect x="176" y="0" width="1" height="1" fill="black"/>
    <rect x="177" y="0" width="3" height="1" fill="white"/>
    <rect x="180" y="0" width="1" height="1" fill="black"/>
    <rect x="181" y="0" width="1" height="1" fill="white"/>
    <rect x="182" y="0" width="3" height="1" fill="black"/>
    <rect x="185" y="0" width="1" height="1" fill="white"/>
    <rect x="186" y="0" width="3" height="1" fill="black"/>
    <rect x="189" y="0" width="1" height="1" fill="white"/>
    <rect x="190" y="0" width="1" height="1" fill="black"/>
</svg>
